<?xml version="1.0" ?><svg xmlns="http://www.w3.org/2000/svg" width="135.42191mm" height="131.42818mm" viewBox="0 0 135.42191 131.42818">
    <path d="m 9144.7944,6498.3965 c -2.1371,0.1395 -4.4546,0.4285 -6.9687,0.8867 -20.112,3.667 -55.901,13.4131 -78.127,21.9531 -22.227,8.539 -70.6089,25.7703 -84.1719,32.4063 -13.563,6.637 -26.1973,14.8977 -21.1953,29.8887 2.273,8.6909 15.3653,10.0132 24.0293,9.3632 8.663,-0.65 23.3604,-4.2699 30.9414,-2.8769 7.58,1.392 10.416,15.7776 10.209,25.8496 -0.206,10.071 -7.5281,4.9667 -14.748,15.1777 -7.219,10.21 -3.8166,40.7936 -2.2696,57.2696 1.547,16.4759 18.6267,137.6492 24.7637,162.5722 6.136,24.922 29.8725,27.2561 37.8144,28.7871 7.942,1.532 6.5489,13.7842 4.5899,19.9102 -1.96,6.127 -22.0717,21.3962 -11.1387,58.6172 10.933,37.2219 57.603,29.8412 78.334,20.2812 20.731,-9.561 26.2481,-33.6934 23.4121,-50.7734 -2.837,-17.079 3.4037,-8.586 11.3457,-8.957 7.942,-0.371 38.213,3.0636 59.666,3.3886 21.453,0.325 14.9048,3.434 12.8418,11.834 -2.063,8.4 -0.7217,14.945 6.2403,34.6699 6.962,19.724 31.3531,32.3473 67.039,23.5293 35.686,-8.818 43.0618,-45.8545 40.8438,-57.2714 -2.217,-11.417 -5.2599,-19.3522 2.7851,-21.9512 8.045,-2.599 6.1864,9.0033 17.0684,15.3613 10.881,6.358 30.3234,-1.7635 39.1933,-9.5605 8.869,-7.797 14.1309,-31.7449 11.9649,-41.2129 -2.166,-9.467 0.587,-5.9576 2.959,-12.2696 2.373,-6.312 -5.9295,-15.2657 -12.4785,-15.1757 -6.55,0.093 -14.1837,0.9727 -9.1817,-2.3223 5.002,-3.295 15.7809,-12.9467 26.7129,-21.3477 10.933,-8.4 17.7938,-61.5885 21.0938,-92.3125 3.301,-30.7239 6.8798,-118.0111 6.6738,-124.7871 -0.207,-6.776 -13.5638,-9.7002 -22.3828,-10.1172 -8.818,-0.418 -213.8074,-31.4666 -227.5254,-33.1836 -13.717,-1.717 -47.5975,-5.385 -50.8985,-8.541 -3.2999,-3.155 -12.1696,-22.7409 -13.3046,-24.5039 -1.134,-1.764 21.04,-13.9698 17.791,-22.0918 -2.8429,-7.1067 -8.9623,-13.4671 -23.9219,-12.4902 z m -35.0508,55.2285 c 4.0998,0.2279 4.9186,5.5079 8.3399,11.6172 3.909,6.983 1.8353,11.7199 -2.0137,13.5059 -3.849,1.787 -42.283,15.8056 -49.5,18.3496 -7.217,2.544 -9.2009,1.7054 -10.7949,-0.9746 -1.594,-2.679 -5.2027,-12.4224 -8.3907,-17.9434 -3.188,-5.521 2.6165,-5.0625 6.6465,-6.6055 5.383,-1.515 47.8443,-16.2375 53.7383,-17.7265 0.7368,-0.186 1.3889,-0.2553 1.9746,-0.2227 z" fill="#FFFFFF" paint-order="markers stroke fill" transform="translate(-445.74665,366.48946) matrix(0.26458333,0,0,0.26458333,-1923.1246,-2085.8305)"/>
    <path d="m 9278.0798,6985.6116 c -18.7484,-4.7561 -29.85,-38.1157 -20.366,-63.0568 l 3.304,-8.6954 -44.701,-2.2642 c -24.585,-1.2444 -50.884,-3.1639 -58.442,-4.2638 -12.414,-1.8069 -13.468,-1.3662 -10.912,4.5642 15.027,34.8767 -7.444,66.5537 -46.811,65.9904 -17.612,-0.2546 -34.215,-13.3941 -37.855,-29.9628 -2.683,-12.2206 3.3,-31.7629 12.188,-39.8057 3.592,-3.2515 6.005,-8.5952 5.364,-11.8759 -4.917,-25.1264 -5.048,-25.3418 -15.499,-25.3418 -18.887,0 -30.315,-17.4392 -33.474,-51.0832 -1.274,-13.5643 -6.195,-48.89 -10.936,-78.5022 -4.74,-29.6131 -8.62,-66.4169 -8.62,-81.7863 0,-25.4102 0.719,-28.3195 7.927,-32.0692 4.36,-2.2692 8.385,-4.5009 8.947,-4.9607 0.561,-0.4607 -1.711,-10.66 -5.049,-22.6645 -5.351,-19.2477 -6.929,-21.5761 -13.35,-19.6958 -4.005,1.1742 -15.571,3.0862 -25.703,4.2513 -15.399,1.7693 -18.801,1.1216 -20.747,-3.9467 -3.689,-9.6134 7.616,-17.2205 51.498,-34.6514 65.532,-26.0286 130.72,-45.091 138.778,-40.5818 10.816,6.0523 6.428,13.8054 -14.652,25.8884 -0.517,0.2971 4.239,9.0993 10.569,19.5623 10.254,16.9468 12.856,19.0683 23.84,19.4405 6.782,0.2303 35.318,3.8073 63.414,7.9484 28.096,4.1428 86.669,12.3417 130.161,18.2204 43.493,5.8787 81.145,12.4042 83.672,14.5007 6.575,5.4564 5.795,45.2237 -2.431,123.8377 -4.787,45.7487 -8.787,69.418 -12.916,76.4058 -7.602,12.8716 -30.9906,30.7316 -60.397,50.5325 -27.5458,18.548 -32.7479,14.5734 -65.866,14.3437 -23.252,-0.1613 -80.722,-0.9539 -127.71,-1.7609 -46.989,-0.807 -85.433,-0.3722 -85.433,0.9673 0,4.9147 8.942,7.7314 21.629,6.8151 12.665,-0.9139 175.733,8.8915 193.201,11.618 9.008,1.4063 36.65,-7.9935 70.534,-23.9855 26.22,-12.3742 47.398,-12.2198 34.922,0.2545 -2.757,2.7574 -2.757,4.4917 0,6.1967 7.401,4.5734 4.2,24.0799 -5.635,34.3459 -12.784,13.344 -25.999,13.0435 -37.695,-0.8554 -8.714,-10.3562 -9.53,-10.5874 -23.054,-6.5355 -13.28,3.98 -13.751,4.5876 -8.895,11.5204 2.82,4.0259 5.2404,14.8903 5.127,24.1408 -0.4298,35.0431 -28.293,57.0546 -67.926,47.0005 z m 4.246,-29.2793 c -4.699,-5.3279 -8.938,-10.3486 -9.422,-11.1565 -0.485,-0.807 -0.882,0.3822 -0.882,2.6423 0,4.3881 12.5,18.2028 16.468,18.2028 1.307,0 -1.467,-4.3598 -6.164,-9.6886 z m -159.335,-2.7741 c 4.461,-2.9226 8.111,-6.8635 8.111,-8.7571 0,-1.8928 -3.171,-0.2704 -7.046,3.6045 -11.499,11.5004 -29.976,10.5398 -41.395,-2.1507 -7.246,-8.0536 -11.314,-4.7754 -5.231,4.2129 8.49,12.5436 29.011,13.9348 45.561,3.0904 z m 184.262,-13.5284 c 0,-6.5021 -9.34,-13.9381 -13.938,-11.0956 -2.023,1.2502 -3.677,5.3488 -3.677,9.1102 0,4.9457 2.438,6.8385 8.807,6.8385 5.132,0 8.808,-2.0255 8.808,-4.8531 z m -18.909,-25.799 c -3.257,-3.2565 -16.322,13.2104 -16.322,20.5746 0,6.2117 1.581,5.2094 8.983,-5.6976 4.939,-7.2799 8.242,-13.974 7.339,-14.877 z m -178.607,20.2967 c 4.192,-2.6514 4.269,-4.1511 0.45,-8.753 -5.913,-7.1247 -12.967,-7.1022 -15.711,0.059 -4.064,10.5915 4.532,15.4938 15.261,8.7045 z m 15.594,-23.1134 c -1.116,-2.9068 -5.426,-5.2278 -9.579,-5.1593 -7.157,0.1193 -7.09,0.3864 1.258,5.1593 11.037,6.3085 10.741,6.3085 8.321,0 z m 265.668,-22.2413 c 0.858,-2.5747 -0.752,-3.3625 -4.184,-2.0456 -3.069,1.1784 -5.579,3.6897 -5.579,5.5808 0,4.6302 8.007,1.7317 9.763,-3.5352 z m -63.287,-49.0995 1.084,-14.973 h -14.294 c -14.225,0 -14.295,0.067 -14.295,13.505 0,16.5211 2.073,18.8262 15.726,17.4893 9.87,-0.9682 10.78,-2.2058 11.779,-16.0213 z m -232.298,7.5971 c 0.717,-0.6059 0.282,-6.5514 -0.968,-13.2096 -2.381,-12.6955 -8.409,-16.2624 -27.639,-16.3584 -9.271,-0.042 -9.8506,0.7043 -9.688,17.4008 0.1233,12.6568 5.9165,16.7722 18.496,15.3594 10.1736,-1.1426 19.083,-2.5855 19.799,-3.1922 z m 187.178,-12.2081 c 0,-13.5201 -0.325,-13.8848 -12.331,-13.8848 -12.003,0 -12.331,0.3698 -12.331,13.8581 0,12.4685 0.973,13.9816 9.689,15.099 13.725,1.7568 14.973,0.4999 14.973,-15.0723 z m -143.31,11.6564 c 0.853,-1.4529 0.767,-7.7932 -0.189,-14.0917 -1.698,-11.1565 -2.194,-11.4495 -19.335,-11.4495 -14.595,0 -17.227,0.9489 -15.454,5.5733 1.177,3.0645 2.139,9.4056 2.139,14.0917 0,7.7315 1.447,8.5185 15.645,8.5185 8.605,0 16.344,-1.1884 17.197,-2.6423 z m 41.142,-8.0077 c 0,-14.1226 -3.9001,-17.7934 -20.032,-17.5335 -17.878,0.288 -15.7403,-0.3894 -13.302,11.4495 3.2434,15.7478 2.897,15.3736 18.979,13.8405 11.011,-1.0499 14.355,-2.8575 14.355,-7.7565 z m 64.398,-6.084 c -1.698,-10.9062 -2.516,-11.4495 -17.237,-11.4495 -15.263,0 -15.454,0.1511 -15.454,12.128 0,11.7491 0.467,12.1622 14.973,13.2121 18.603,1.347 19.93,0.3071 17.718,-13.8906 z m -39.737,0.8813 c 0,-10.5172 -1.191,-12.3308 -8.099,-12.3308 -7.184,0 -7.937,1.3971 -6.661,12.3308 1.078,9.2362 3.111,12.3308 8.1,12.3308 5.263,0 6.66,-2.5872 6.66,-12.3308 z m 206.95,-29.2175 c 2.881,-7.3776 -2.077,-9.3397 -8.758,-3.4668 -3.404,2.992 -15.304,10.5315 -26.444,16.7557 -16.097,8.9917 -20.258,13.0953 -20.258,19.9738 0,8.3182 1.054,7.9242 26.84,-10.024 14.762,-10.2761 27.642,-20.7325 28.62,-23.2387 z m 0.908,-27.8746 c 0,-3.325 -5.101,-2.0948 -17.615,4.2463 -9.039,6.6615 -16.3047,9.9683 -24.2962,13.7821 -5.7881,2.7622 -10.9338,6.0414 -10.9338,14.2778 0,8.0478 1.22,7.6038 26.421,-9.5951 14.534,-9.9172 26.424,-20.1373 26.424,-22.7111 z m -81.029,27.1461 c 0,-10.1768 -0.587,-10.5691 -15.854,-10.5691 -14.451,0 -15.853,0.7587 -15.853,8.5844 0,7.0447 2.054,8.839 11.45,10.0049 6.297,0.782 13.431,1.675 15.853,1.9846 2.67,0.3422 4.404,-3.597 4.404,-10.0048 z m -45.8,-3.5236 c 0,-10.3629 -0.348,-10.5682 -17.992,-10.5682 -14.959,0 -17.631,0.9397 -15.852,5.5725 1.176,3.0645 2.137,6.9377 2.137,8.6044 0,1.6691 6.738,3.6395 14.973,4.3806 8.236,0.7428 15.369,1.6258 15.854,1.9646 0.484,0.3389 0.88,-4.1403 0.88,-9.9539 z m -193.818,-4.4032 c -0.07,-16.174 -3.018,-18.9957 -21.965,-21.0763 l -16.734,-1.8385 v 14.8336 c 0,8.1588 1.056,15.8903 2.348,17.1822 1.291,1.2919 10.012,2.3485 19.376,2.3485 16.873,0 17.028,-0.099 16.975,-11.4495 z m 40.345,8.2881 c 1.074,-1.7376 0.999,-7.9284 -0.167,-13.757 -1.858,-9.2863 -3.816,-10.7585 -15.838,-11.9052 l -13.719,-1.3078 v 15.0657 15.0657 h 13.884 c 7.636,0 14.764,-1.4213 15.838,-3.1614 z m 109.812,-2.4102 c -1.176,-3.0654 -2.138,-7.8216 -2.138,-10.5699 0,-3.481 -4.275,-4.9965 -14.092,-4.9965 -12.569,0 -14.092,0.9238 -14.092,8.5501 0,8.9483 4.613,11.4579 22.396,12.1798 7.816,0.3171 9.587,-0.8363 7.926,-5.1635 z m -69.075,-8.1504 c 0,-9.404 -1.166,-10.3203 -14.973,-11.7633 -8.234,-0.8613 -15.519,-1.1409 -16.188,-0.6226 -0.669,0.5191 -0.148,5.8128 1.161,11.7641 2.16,9.8354 3.635,10.8211 16.188,10.8211 12.888,0 13.812,-0.6836 13.812,-10.1993 z m 31.061,0.5116 c -0.798,-6.937 -3.366,-10.0082 -9.042,-10.8144 -6.743,-0.9573 -7.926,0.4882 -7.926,9.6885 0,9.2612 1.299,10.8136 9.041,10.8136 7.785,0 8.886,-1.3462 7.927,-9.6877 z m 169.751,-25.8092 c 0,-7.5128 -1.346,-9.5641 -5.284,-8.0536 -2.995,1.1492 -5.285,6.3987 -5.285,12.1105 0,7.5128 1.345,9.5642 5.285,8.0536 2.993,-1.1492 5.284,-6.3986 5.284,-12.1105 z m -39.431,-5.8979 1.083,-14.973 h -17.817 -17.818 v 13.798 c 0,15.3686 3.101,17.8372 21.138,16.8333 11.862,-0.6602 12.372,-1.2552 13.414,-15.6583 z m -48.645,-2.6422 v -15.8544 h -17.614 -17.615 v 13.8689 c 0,13.0068 0.711,13.9574 11.45,15.2894 24.964,3.0987 23.779,3.7622 23.779,-13.3039 z m -46.476,-2.6423 c -1.052,-14.534 -1.471,-15.0047 -14.295,-16.0671 l -13.212,-1.0933 v 14.0709 c 0,14.6859 0.162,14.8036 23.983,17.5335 3.3,0.3788 4.3,-3.7189 3.524,-14.444 z m 176.781,-8.662 0.04,-11.3051 -17.615,8.8473 c -13.379,6.72 -17.614,10.7743 -17.614,16.8583 0,8.0044 0,8.0069 17.567,2.457 16.252,-5.1376 17.571,-6.4003 17.615,-16.8575 z m -246.618,8.662 c -0.08,-15.6849 -3.097,-19.1033 -18.442,-20.8576 -13.185,-1.5055 -13.211,-1.4822 -13.211,11.7007 0,14.6768 6.064,20.3218 22.02,20.4988 8.614,0.098 9.681,-1.1618 9.633,-11.3419 z m 31.762,-2.406 c 0,-10.9805 -1.535,-14.3413 -7.401,-16.2032 -10.143,-3.219 -13.116,1.2827 -11.131,16.8466 1.419,11.1123 3.026,13.2121 10.109,13.2121 7.453,0 8.423,-1.5949 8.423,-13.8555 z m -113.739,-4.0502 c -1.06,-7.9109 -2.82,-15.2743 -3.908,-16.3643 -1.09,-1.0882 -10.185,-2.7682 -20.214,-3.7322 l -18.232,-1.7509 2.301,11.5096 c 1.266,6.3294 2.302,14.4814 2.302,18.1152 0,5.6767 2.789,6.6056 19.84,6.6056 h 19.841 z m 39.707,6.4562 c -0.113,-18.822 -3.684,-23.7811 -17.123,-23.7811 h -12.825 l 1.261,15.8535 1.261,15.8544 h 13.737 c 11.912,0 13.731,-1.0541 13.689,-7.9268 z m 246.547,-21.516 c -0.11,-10.4981 -0.38,-10.7176 -5.285,-4.2338 -6.906,9.1327 -6.836,20.0021 0.114,17.3357 3.184,-1.2227 5.24,-6.4279 5.173,-13.1019 z m 24.773,-13.8055 c 0,-8.753 -0.781,-9.4273 -7.046,-6.074 -4.621,2.472 -7.046,7.3768 -7.046,14.2461 0,9.5926 0.594,10.1042 7.046,6.074 4.315,-2.6948 7.046,-8.2155 7.046,-14.2461 z m -59.891,-0.7903 v -12.3292 h -17.615 c -17.127,0 -17.616,0.2855 -17.616,10.3103 0,11.0573 3.697,13.2246 23.781,13.9407 10.815,0.3872 11.45,-0.2746 11.45,-11.9218 z m -49.322,-3.5228 v -12.3299 h -19.377 c -19.092,0 -19.376,0.1527 -19.376,10.3562 0,10.9137 -1.02,10.4839 32.587,13.712 4.811,0.4623 6.166,-2.1173 6.166,-11.7383 z m 130.351,-2.038 c 0,-3.4067 0.962,-8.7004 2.139,-11.7658 1.176,-3.0653 0.685,-5.5724 -1.089,-5.5724 -6.821,0 -14.358,9.2771 -16.355,20.1299 -2.02,10.9771 -1.818,11.2016 6.611,7.3617 4.782,-2.1782 8.694,-6.7483 8.694,-10.1534 z m -221.95,-5.0074 c 0,-11.4553 -0.779,-12.3308 -10.979,-12.3308 -9.668,0 -10.726,0.9481 -8.857,7.9276 1.169,4.3598 2.147,9.9072 2.173,12.3291 0.03,2.4228 4.011,4.4049 8.856,4.4049 7.716,0 8.807,-1.5265 8.807,-12.3308 z m 38.753,1.7609 c 0,-9.9814 -0.783,-10.569 -14.091,-10.569 -13.309,0 -14.092,0.5876 -14.092,10.569 0,9.9823 0.783,10.5699 14.092,10.5699 13.308,0 14.091,-0.5876 14.091,-10.5699 z m -155.012,-7.3559 c 0,-12.8382 -0.612,-13.5584 -13.211,-15.5414 -32.603,-5.1309 -30.083,-6.0231 -27.558,9.7654 1.251,7.8216 2.971,15.3511 3.824,16.7298 0.852,1.3803 9.514,2.5095 19.248,2.5095 h 17.697 z m 38.753,2.0714 c 0,-10.6925 -1.131,-12.3308 -8.519,-12.3308 -4.685,0 -11.027,-0.9614 -14.092,-2.1373 -4.174,-1.6032 -5.573,0.087 -5.573,6.7575 0,15.69 3.524,20.0414 16.231,20.0414 11.312,0 11.953,-0.661 11.953,-12.3308 z m 43.609,2.6423 c -2.998,-12.496 -1.981,-11.7341 -18.657,-13.9716 -15.276,-2.048 -16.502,-0.4607 -12.163,15.7342 1.796,6.6974 4.529,7.9259 17.635,7.9259 15.134,0 15.453,-0.2353 13.185,-9.6885 z m 211.433,4.1152 c 4.228,-11.018 2.452,-22.51 -3.147,-20.3618 -3.26,1.251 -5.284,6.6065 -5.284,13.9807 0,12.4468 4.73,16.0254 8.431,6.3811 z m 20.893,-11.1607 c 0.855,-1.4538 2.69,-7.9351 4.078,-14.4022 2.389,-11.1323 2.129,-11.5487 -4.87,-7.8032 -4.958,2.6531 -7.394,7.3993 -7.394,14.4022 0,9.6602 4.544,13.9907 8.186,7.8032 z m -56.124,-13.4992 c 1.176,-3.0662 2.139,-8.7629 2.139,-12.6612 0,-6.5197 -1.484,-6.8886 -18.496,-4.5935 -21.48,2.8968 -23.78,3.915 -23.78,10.5289 0,11.7149 35.914,17.7322 40.137,6.7258 z m 78.89,2.5914 c 5.072,-3.2189 10.31,-28.7268 5.897,-28.7268 -6.688,0 -15.712,12.4535 -15.712,21.6847 0,10.4012 2.121,11.9227 9.815,7.0421 z m -129.596,-7.5888 c 0,-3.8749 -2.157,-7.0462 -4.793,-7.0462 -2.636,0 -12.31,-1.0291 -21.498,-2.2893 -15.128,-2.0739 -16.585,-1.6566 -15.434,4.4032 0.977,5.1485 5.331,7.1757 18.856,8.783 9.671,1.1493 18.773,2.3377 20.226,2.6423 1.454,0.3038 2.643,-2.6172 2.643,-6.493 z m -94.919,-13.7128 c -2.436,-4.5534 -7.427,-7.4252 -12.901,-7.4252 -7.203,0 -8.712,1.5064 -7.804,7.7832 0.701,4.8472 4.448,8.632 9.933,10.0358 11.5,2.941 15.727,-1.1367 10.772,-10.3938 z m 45.596,6.6666 c 0,-4.5401 -2.348,-7.0455 -6.605,-7.0455 -3.633,0 -11.56,-0.9906 -17.616,-2.2016 -9.33,-1.8669 -11.009,-1.1509 -11.009,4.6978 0,9.9339 2.862,11.5955 19.964,11.5955 12.918,0 15.266,-1.0832 15.266,-7.0462 z m 136.694,2.8191 c 4.261,-4.2621 5.933,-16.9109 2.235,-16.9109 -7.476,0 -14.767,7.7983 -13.134,14.0459 2.128,8.1345 4.901,8.8631 10.899,2.865 z m -259.999,-9.8646 c 0,-6.619 -1.81,-10.5682 -4.845,-10.5682 -2.664,0 -9.881,-1.0081 -16.039,-2.2399 -10.88,-2.1758 -11.128,-1.9504 -8.761,7.9259 3.556,14.8436 4.245,15.4512 17.522,15.4512 11.122,0 12.123,-0.8729 12.123,-10.569 z m 43.838,2.6423 c -3.116,-10.1384 -1.338,-9.0059 -18.428,-11.7391 -14.782,-2.3635 -14.84,-2.3285 -14.84,8.647 0,10.8936 0.203,11.0188 17.852,11.0188 16.887,0 17.72,-0.429 15.416,-7.9267 z m -83.893,-3.5228 c -1.169,-4.3598 -2.146,-9.0434 -2.173,-10.4096 -0.03,-1.3645 -5.994,-3.4384 -13.259,-4.6068 -7.266,-1.1684 -16.819,-2.8659 -21.228,-3.7723 -7.167,-1.473 -7.788,-0.6117 -5.871,8.1304 1.18,5.3772 2.756,11.7591 3.502,14.1811 0.876,2.8433 8.408,4.4032 21.254,4.4032 18.917,0 19.793,-0.3906 17.775,-7.926 z m 323.677,-6.1875 c 7.397,-8.1721 4.249,-13.8505 -4.593,-8.2831 -6.55,4.1253 -10.236,15.3511 -5.038,15.3511 1.779,0 6.113,-3.1805 9.631,-7.068 z m -44.119,-12.2531 c 3.178,-2.8743 14.207,-9.8371 24.51,-15.4713 20.793,-11.371 20.054,-12.2432 -13.88,-16.3835 -20.912,-2.5521 -150.238,-24.9979 -164.157,-28.4906 -8.349,-2.0964 -8.469,-1.7701 -8.469,22.9165 0,15.5381 1.439,25.043 3.793,25.043 2.087,0 24.678,3.123 50.203,6.9386 74.952,11.2058 100.228,12.4819 108,5.4473 z m 67.731,0.8254 c 6.243,-4.9073 11.931,-20.3227 7.432,-20.1407 -5.663,0.2311 -18.733,13.4482 -18.733,18.9447 0,6.7375 3.747,7.1339 11.301,1.196 z m -241.787,-29.9453 c -1.25,-7.2666 -3.5583,-17.3909 -4.14,-22.6511 -1.2978,-11.7365 -8.1575,-6.4351 -23.854,0.4257 -12.1457,5.3087 -25.865,11.0922 -30.601,12.592 -4.738,1.4997 -15.747,6.0356 -24.467,10.0791 l -15.853,7.3509 28.183,2.0622 c 15.502,1.1333 38.27,2.3502 50.595,2.7065 l 22.411,0.646 z m -77.777,-31.8313 c 13.563,-4.9958 25.131,-9.3948 25.702,-9.7779 0.574,-0.3822 -2.565,-8.4183 -6.974,-17.8565 -4.411,-9.4381 -8.171,-17.5443 -8.357,-18.015 -0.323,-0.8246 -63.935,20.4061 -76.405,25.5045 -5.823,2.3785 -5.813,2.9969 0.172,11.83 3.473,5.1251 8.199,13.7095 10.502,19.0741 l 4.186,9.7545 13.256,-5.7168 c 7.292,-3.1447 24.354,-9.8029 37.918,-14.7969 z" transform="translate(-445.74665,366.48946) matrix(0.26458333,0,0,0.26458333,-1923.1246,-2085.8305)" fill="#000000"/>
</svg>